<?xml version="1.0" encoding="utf-8"?>
<!-- Generator: Adobe Illustrator 19.2.1, SVG Export Plug-In . SVG Version: 6.00 Build 0)  -->
<svg version="1.1" id="Layer_1" xmlns="http://www.w3.org/2000/svg" xmlns:xlink="http://www.w3.org/1999/xlink" x="0px" y="0px"
	 viewBox="0 0 613 440" style="enable-background:new 0 0 613 440;" xml:space="preserve">
<style type="text/css">
	.st0{fill:#FFFFFF;}
</style>
<g id="Layer_1_1_">
</g>
<g id="STATION">
	<g>
		<path class="st0" d="M471.7,307.3H325.3c-2.2-8.4-9.7-14.6-18.7-14.6s-16.7,6.2-18.7,14.6H141.2v9.7h146.4
			c2.2,8.4,9.7,14.6,18.7,14.6S323,325.4,325,317h146.4v-9.7H471.7z M306.4,321.8c-5.4,0-9.7-4.4-9.7-9.7c0-5.4,4.4-9.7,9.7-9.7
			s9.7,4.4,9.7,9.7S311.8,321.8,306.4,321.8z"/>
		<g id="logo_2_">
			<path class="st0" d="M74.4,288.1c-7.4,3.5-15,4.5-22.4,2.9s-14.1-5.7-20-12.3l14.4-12.8c6.6,7.4,13.3,9.4,20.3,6.1
				c4-1.9,6.5-5.1,7.2-9.6c0.6-4-0.1-8.3-2.2-12.7c-2.3-5-8.6-9.1-18.7-12.4c-9.5-2.9-18.9-5.8-28.4-8.6C14,224.4,7,218.6,3.6,211.1
				c-3.8-8-4.1-15.8-1.1-23.5s8.6-13.4,16.9-17.3c6.2-2.9,12.5-3.7,19-2.2s12.3,5,17.4,10.5l-14.5,13c-5.2-5.6-10-7.4-14.5-5.4
				c-3.4,1.6-5.5,3.9-6.5,6.9s-0.6,6.2,1,9.6c1.9,4.1,8.8,7.9,20.4,11.2c14.5,4.1,23.5,7.2,27.3,8.9c10.1,4.6,17,10.8,20.7,18.5
				c4.1,8.9,5,17.6,2.6,26.4C89.5,277,83.7,283.8,74.4,288.1z"/>
			<path class="st0" d="M129.1,150.9l30.8,103.3l-18.6,5.5l-30.9-103.2l-17.5,5.2l-5.3-18.1l53.9-16.1l5.4,18.1L129.1,150.9z"/>
			<path class="st0" d="M239.8,238.3l-8.6-25.9l-18.9,2.8l-0.7,27.4l-19.4,2.8l5.6-129.1l18.6-2.8l42.8,122.1L239.8,238.3z
				 M213.9,161.1l-1,36.3l12.7-1.8L213.9,161.1z"/>
			<path class="st0" d="M363.9,237.3l15.6-126l19.2,2.4l-15.6,126L363.9,237.3z"/>
			<path class="st0" d="M443.7,253.6c-8.6-2.2-14.7-6.8-18.5-13.8c-3.8-6.9-4.5-14.6-2.4-22.9l17.5-67.2c2.2-8.5,6.7-14.8,13.3-19
				c6.7-4.3,14.2-5.2,22.9-2.9c8.6,2.2,14.7,6.8,18.6,13.8c3.8,6.9,4.6,14.6,2.4,23.1l-17.4,67.1c-2.2,8.4-6.7,14.6-13.4,18.9
				C460,254.8,452.3,255.8,443.7,253.6z M478.6,159.9c2.1-7.8-0.2-12.4-6.7-14.1c-6.5-1.7-10.7,1.3-12.8,9l-17.4,66.9
				c-1.9,7.7,0.2,12.3,6.7,14s10.7-1.2,12.8-8.9L478.6,159.9z"/>
			<path class="st0" d="M542.7,288.1l7.3-75.7l-29.8,65.5l-17.6-8l52.5-115.5l17.2,7.8l-8,77.3l30.4-67.1l17.9,8.2l-52.5,115.5
				L542.7,288.1z"/>
			<path class="st0" d="M316,126.5v107.8h-19.5V126.5h-18.4v-18.9h56.3v18.9H316z"/>
		</g>
	</g>
</g>
<g>
	<path class="st0" d="M45.3,423.9c-0.1,0.4,0.1,0.8,0.4,1c0.5,0.2,0.9,0.4,1.5,0.5c0.4,0.1,0.5,0.3,0.5,0.6c0,0.1,0,0.2,0,0.3
		c0,0.1,0,0.2-0.1,0.4c-1.4-0.2-2.8-0.2-4.1-0.2c-0.5,0-1.3,0-2.1,0.1c-0.8,0.1-1.5,0.1-2.2,0.2c0-0.1,0-0.2-0.1-0.3
		c0-0.1,0-0.2,0-0.3c0-0.3,0.2-0.5,0.5-0.5c0.6-0.1,1.2-0.3,1.6-0.5c0.5-0.2,0.7-0.5,0.8-1l3.5-18.2c0.1-0.4,0-0.8-0.4-1
		c-0.4-0.2-0.7-0.4-1.4-0.5c-0.4-0.1-0.5-0.3-0.5-0.5c0-0.2,0-0.4,0.1-0.6c0.7,0.1,1.4,0.1,2.2,0.2c0.7,0.1,1.4,0.1,2.1,0.1h2.8
		c2.2,0,4,0.4,5.2,1.4c1.3,1,1.9,2.2,1.9,3.9c0,0.7-0.1,1.4-0.4,2.2c-0.2,0.7-0.5,1.4-1.1,1.9c-0.4,0.6-1.1,1.2-1.9,1.6
		c-0.8,0.5-1.7,0.9-2.9,1.2l5.1,8.7c0.2,0.4,0.5,0.6,0.9,0.8c0.4,0.2,0.8,0.4,1.3,0.5c0.2,0.1,0.3,0.2,0.3,0.4c0,0.1,0,0.2,0,0.3
		c0,0.1-0.1,0.2-0.1,0.4c-0.6-0.1-1.3-0.1-1.9-0.2c-0.5,0-1.1-0.1-1.5-0.1c-0.5,0-0.8-0.2-1.2-0.5c-0.4-0.3-0.7-0.7-1.1-1.4
		l-5.4-9.2l0.2-0.6c2,0,3.5-0.5,4.5-1.4c1.1-1,1.5-2.4,1.5-4.4c0-0.5-0.1-1.1-0.3-1.5c-0.2-0.4-0.5-0.9-0.7-1.3
		c-0.3-0.4-0.8-0.6-1.3-0.9c-0.5-0.2-1.3-0.4-2.1-0.4h-1L45.3,423.9z"/>
	<path class="st0" d="M67.7,419.1c0,0.3,0,0.4-0.1,0.7c0,0.3,0,0.5,0,0.7c0,0.5,0.1,1.1,0.2,1.6c0.1,0.5,0.3,1,0.4,1.4
		c0.3,0.4,0.5,0.7,1,1c0.4,0.3,0.9,0.4,1.5,0.4c0.6,0,1.3-0.1,1.9-0.4c0.6-0.2,1.3-0.5,2-1.1c0.3-0.2,0.4-0.3,0.5-0.3
		c0.2,0,0.3,0.1,0.4,0.3c0.1,0.2,0.1,0.4,0.1,0.5c-0.4,0.4-0.7,0.6-1.2,1c-0.4,0.4-0.9,0.6-1.4,0.9c-0.5,0.3-1.1,0.4-1.6,0.6
		c-0.6,0.2-1.2,0.3-1.8,0.3c-1,0-1.8-0.2-2.4-0.5c-0.6-0.4-1.1-0.8-1.4-1.4c-0.4-0.5-0.6-1.2-0.7-1.9c-0.1-0.7-0.2-1.4-0.2-2
		c0-1.3,0.2-2.5,0.5-3.7c0.4-1.3,0.9-2.3,1.6-3.3c0.7-1,1.5-1.7,2.6-2.3c1-0.6,2.2-0.9,3.4-0.9c0.5,0,1,0.1,1.4,0.2
		c0.4,0.1,0.9,0.4,1.3,0.5c0.4,0.3,0.6,0.6,0.9,1c0.2,0.4,0.4,0.9,0.4,1.5c0,0.9-0.3,1.6-0.7,2.2s-1.1,1.2-1.9,1.5
		c-0.8,0.4-1.8,0.7-2.9,0.9C70.3,418.9,69.1,419,67.7,419.1z M67.8,418c2.2-0.2,3.9-0.6,4.8-1.4c0.9-0.7,1.4-1.6,1.4-2.8
		c0-0.6-0.2-1.2-0.4-1.5c-0.4-0.4-0.7-0.5-1.3-0.5s-1.1,0.2-1.5,0.5c-0.4,0.4-0.9,0.8-1.3,1.4c-0.4,0.5-0.7,1.3-1,2
		C68.2,416.5,68,417.2,67.8,418z"/>
	<path class="st0" d="M86.3,410.4c0.2-0.9,0.3-1.6,0.3-2.2c0-0.3,0-0.6-0.1-1c0.5-0.1,0.9-0.2,1.4-0.2c0.4-0.1,1-0.2,1.4-0.4
		c0.2,0.2,0.3,0.3,0.3,0.5c0,0.1,0,0.2,0,0.3c0,0.2,0,0.3-0.1,0.4l-0.6,3.1h3.6c-0.1,0.2-0.2,0.5-0.2,0.8s-0.1,0.6-0.2,0.8
		c-0.6-0.1-1.2-0.2-1.8-0.3c-0.6-0.1-1.2-0.1-1.7-0.1l-2,11.1c-0.1,0.4-0.1,0.6-0.1,0.7c0,0.5,0.4,0.8,1,0.8c0.4,0,0.7,0,1-0.1
		c0.3-0.1,0.5-0.2,0.8-0.3c0.2-0.1,0.4-0.2,0.5-0.3c0.2-0.1,0.3-0.1,0.4-0.1c0.3,0,0.4,0.2,0.4,0.6c-0.7,0.5-1.5,1-2.3,1.4
		c-0.9,0.4-1.7,0.5-2.4,0.5c-0.8,0-1.4-0.2-1.8-0.5s-0.4-0.5-0.4-1.1c0-0.3,0-0.5,0.1-0.7l2.2-12.1h-2.6c0.1-0.4,0.1-0.7,0.3-0.9
		c0.2-0.2,0.3-0.3,0.5-0.3h2L86.3,410.4z"/>
	<path class="st0" d="M107.3,420.3h-0.2c-0.6,1.2-1.2,2.2-1.8,3s-1.3,1.4-1.8,2c-0.6,0.5-1.2,0.8-1.8,1.1c-0.5,0.2-1.1,0.4-1.6,0.4
		c-0.4,0-0.7-0.1-1-0.2c-0.4-0.1-0.6-0.3-0.8-0.5c-0.3-0.3-0.4-0.6-0.5-1.1c-0.2-0.5-0.2-1-0.2-1.7c0-2,0.4-3.8,1-5.3
		c0.6-1.5,1.4-2.9,2.4-4c1-1.1,2-1.9,3.2-2.4c1.1-0.5,2.2-0.8,3.2-0.8c0.7,0,1.4,0,2.2,0.1c0.7,0.1,1.4,0.2,2.3,0.4l-2.4,12.2
		c-0.1,0.3-0.1,0.5-0.1,0.6c0,0.3,0.1,0.5,0.4,0.5c0.2,0,0.4,0,0.5-0.1c0.2-0.1,0.4-0.2,0.5-0.3c0.2-0.1,0.4-0.2,0.4-0.3
		c0.2-0.1,0.3-0.1,0.4-0.1c0.3,0,0.4,0.3,0.4,0.7c-0.4,0.3-0.9,0.6-1.3,0.9c-0.4,0.3-0.9,0.5-1.3,0.7s-0.8,0.4-1.2,0.5
		c-0.4,0.1-0.7,0.2-0.9,0.2c-0.3,0-0.5-0.1-0.7-0.2c-0.2-0.1-0.4-0.4-0.4-0.7c0-0.1,0-0.3,0-0.4c0-0.2,0.1-0.3,0.1-0.5L107.3,420.3z
		 M108.6,412.3c-0.3-0.1-0.6-0.2-0.9-0.3c-0.4-0.1-0.6-0.1-1-0.1c-0.9,0-1.8,0.3-2.5,0.7c-0.7,0.5-1.4,1.2-2,2.1
		c-0.5,0.9-1,2-1.3,3.1c-0.3,1.3-0.4,2.5-0.4,4c0,0.8,0.1,1.4,0.4,1.8c0.2,0.4,0.5,0.5,0.9,0.5c0.4,0,1-0.2,1.5-0.6
		c0.5-0.5,1.1-1,1.5-1.6c0.5-0.7,1-1.4,1.4-2.3c0.4-0.9,0.9-1.7,1.3-2.6c0.4-0.9,0.6-1.8,0.8-2.6C108.5,413.7,108.6,413,108.6,412.3
		z"/>
	<path class="st0" d="M122.4,423.3c0,0.1-0.1,0.2-0.1,0.4c0,0.2,0,0.3,0,0.4c0,0.3,0.2,0.4,0.5,0.4c0.2,0,0.4,0,0.5-0.1
		c0.2-0.1,0.4-0.2,0.5-0.3c0.2-0.1,0.4-0.2,0.5-0.3c0.2-0.1,0.3-0.1,0.4-0.1c0.3,0,0.4,0.3,0.4,0.7c-0.4,0.3-0.8,0.6-1.3,0.9
		c-0.4,0.3-0.9,0.5-1.3,0.7c-0.4,0.2-0.8,0.4-1.2,0.5c-0.4,0.1-0.7,0.2-0.9,0.2c-0.3,0-0.5-0.1-0.7-0.2c-0.3-0.1-0.4-0.4-0.4-0.7
		c0-0.1,0-0.2,0-0.4c0-0.2,0.1-0.3,0.1-0.4c0.5-2.5,0.9-4.5,1.3-6c0.3-1.5,0.5-2.6,0.7-3.4c0.2-0.8,0.3-1.4,0.3-1.5
		c0.1-0.3,0.1-0.5,0.1-0.5c0-0.3-0.1-0.5-0.4-0.5c-0.1,0-0.3,0-0.5,0.1c-0.2,0.1-0.4,0.2-0.6,0.3c-0.2,0.1-0.4,0.2-0.5,0.3
		c-0.2,0.1-0.3,0.1-0.5,0.1c-0.2,0-0.3-0.1-0.4-0.2c-0.1-0.2-0.1-0.3-0.2-0.4c0.4-0.3,0.9-0.5,1.4-0.8s1.1-0.5,1.6-0.8
		s1-0.5,1.4-0.6c0.4-0.2,0.7-0.3,0.8-0.3c0.4,0,0.6,0.2,0.6,0.6c0,0.2,0,0.4-0.1,0.5L122.4,423.3z M124.2,406.8
		c-0.4,0-0.8-0.2-1.1-0.4c-0.3-0.3-0.4-0.6-0.4-1.1c0-0.6,0.2-1.2,0.6-1.7c0.4-0.5,1-0.7,1.5-0.7c0.4,0,0.8,0.2,1,0.5
		c0.2,0.3,0.3,0.7,0.3,1.2c0,0.6-0.2,1.1-0.6,1.6C125.3,406.6,124.7,406.8,124.2,406.8z"/>
	<path class="st0" d="M136.2,404.3c0-0.1,0-0.3-0.1-0.4c0-0.1-0.2-0.2-0.3-0.2s-0.2,0-0.4,0.1c-0.2,0-0.4,0.1-0.5,0.1
		c-0.2,0-0.4,0.1-0.5,0.1s-0.3,0-0.4,0c-0.3,0-0.4-0.3-0.4-0.7c1.1-0.3,2.1-0.5,3-0.9c0.9-0.3,1.8-0.6,2.7-1
		c0.2,0.1,0.3,0.3,0.4,0.4c0.1,0.1,0.1,0.2,0.1,0.4s0,0.4-0.1,0.5l-4.1,20.6c0,0.1-0.1,0.3-0.1,0.5c0,0.2,0,0.3,0,0.3
		c0,0.3,0.2,0.4,0.4,0.4c0.2,0,0.4,0,0.5-0.1s0.4-0.2,0.5-0.3c0.2-0.1,0.4-0.2,0.4-0.3c0.2-0.1,0.3-0.1,0.4-0.1
		c0.3,0,0.4,0.3,0.5,0.7c-0.4,0.3-0.8,0.6-1.3,0.9s-0.9,0.5-1.3,0.7c-0.5,0.2-0.8,0.4-1.2,0.5c-0.4,0.1-0.7,0.2-0.9,0.2
		c-0.3,0-0.5-0.1-0.7-0.2c-0.3-0.1-0.4-0.4-0.4-0.7c0-0.1,0-0.2,0-0.4c0-0.2,0.1-0.3,0.1-0.4l3.3-17.1c0.2-0.7,0.3-1.4,0.4-2.1
		C136.2,405.2,136.2,404.7,136.2,404.3z"/>
	<path class="st0" d="M168.6,407.9c0.1-0.3,0.1-0.6,0.2-0.9c0.1-0.4,0.1-0.7,0.2-1c0-0.4,0.1-0.6,0.1-0.9s0-0.5,0-0.7
		c0-0.1,0-0.3-0.1-0.4c0-0.1-0.2-0.2-0.3-0.2c-0.1,0-0.2,0-0.4,0.1c-0.2,0-0.4,0.1-0.5,0.1c-0.2,0-0.4,0.1-0.5,0.1
		c-0.2,0-0.3,0-0.4,0c-0.3,0-0.4-0.3-0.4-0.7c1.1-0.3,2.1-0.5,3-0.9c0.9-0.3,1.8-0.6,2.7-1c0.2,0.1,0.3,0.2,0.4,0.4
		c0.1,0.1,0.1,0.2,0.1,0.3c0,0.2,0,0.4-0.1,0.6l-4,20.7c0,0.1-0.1,0.3-0.1,0.4s0,0.2,0,0.3c0,0.3,0.2,0.4,0.4,0.4
		c0.2,0,0.4,0,0.5-0.1c0.2-0.1,0.4-0.2,0.5-0.3c0.2-0.1,0.4-0.2,0.4-0.3c0.2-0.1,0.3-0.1,0.4-0.1c0.3,0,0.4,0.3,0.4,0.7
		c-0.4,0.3-0.8,0.6-1.3,0.9s-0.9,0.5-1.4,0.7c-0.4,0.2-0.8,0.4-1.2,0.5c-0.4,0.1-0.7,0.2-0.9,0.2c-0.3,0-0.5-0.1-0.7-0.2
		c-0.2-0.1-0.4-0.4-0.4-0.7c0-0.2,0-0.5,0.1-0.8l1.1-4.6h-0.2c-1.1,2.2-2.2,3.8-3.3,4.8c-1.1,1-2.2,1.4-3.4,1.4
		c-0.4,0-0.7-0.1-1.1-0.2c-0.4-0.1-0.6-0.3-0.9-0.5c-0.3-0.3-0.5-0.6-0.7-1.2c-0.2-0.5-0.3-1.1-0.3-1.9c0-2,0.3-3.8,0.9-5.3
		c0.6-1.5,1.4-2.8,2.2-3.9c0.9-1.1,1.9-1.8,3.1-2.3c1.1-0.5,2.2-0.8,3.2-0.8c0.7,0,1.4,0,2.1,0.1L168.6,407.9z M167.7,412.3
		c-0.3-0.1-0.6-0.2-1-0.3c-0.4-0.1-0.8-0.1-1.1-0.1c-0.9,0-1.7,0.3-2.4,0.7c-0.7,0.5-1.3,1.2-1.9,2.1c-0.5,0.9-0.9,1.9-1.2,3.1
		c-0.3,1.2-0.4,2.4-0.4,3.8c0,1,0.1,1.7,0.4,2.1c0.3,0.4,0.6,0.6,1.1,0.6s0.9-0.2,1.4-0.6c0.4-0.4,1-1,1.4-1.6
		c0.4-0.6,1-1.4,1.4-2.3c0.5-0.9,0.8-1.7,1.2-2.6c0.4-0.9,0.6-1.8,0.8-2.6C167.6,413.7,167.7,413,167.7,412.3z"/>
	<path class="st0" d="M180.8,419.1c0,0.3,0,0.4-0.1,0.7c0,0.3,0,0.5,0,0.7c0,0.5,0.1,1.1,0.2,1.6c0.1,0.5,0.3,1,0.4,1.4
		c0.3,0.4,0.5,0.7,1,1c0.4,0.3,0.9,0.4,1.5,0.4c0.6,0,1.3-0.1,1.9-0.4c0.6-0.2,1.4-0.5,2-1.1c0.3-0.2,0.4-0.3,0.4-0.3
		c0.2,0,0.3,0.1,0.4,0.3c0.1,0.2,0.1,0.4,0.1,0.5c-0.4,0.4-0.7,0.6-1.2,1c-0.5,0.4-0.9,0.6-1.4,0.9c-0.5,0.3-1.1,0.4-1.6,0.6
		c-0.6,0.2-1.2,0.3-1.8,0.3c-1,0-1.8-0.2-2.4-0.5c-0.6-0.4-1.1-0.8-1.4-1.4c-0.4-0.5-0.6-1.2-0.7-1.9c-0.1-0.7-0.2-1.4-0.2-2
		c0-1.3,0.2-2.5,0.5-3.7c0.4-1.3,0.9-2.3,1.6-3.3c0.7-1,1.5-1.7,2.6-2.3c1-0.6,2.2-0.9,3.4-0.9c0.5,0,1,0.1,1.4,0.2
		c0.4,0.1,0.9,0.4,1.3,0.5c0.4,0.3,0.6,0.6,0.9,1c0.2,0.4,0.4,0.9,0.4,1.5c0,0.9-0.3,1.6-0.7,2.2c-0.5,0.6-1.1,1.2-1.9,1.5
		c-0.8,0.4-1.8,0.7-2.9,0.9C183.4,418.9,182.1,419,180.8,419.1z M181,418c2.2-0.2,3.9-0.6,4.8-1.4c0.9-0.7,1.4-1.6,1.4-2.8
		c0-0.6-0.2-1.2-0.5-1.5c-0.4-0.4-0.7-0.5-1.3-0.5s-1.1,0.2-1.5,0.5c-0.4,0.4-0.9,0.8-1.3,1.4c-0.4,0.5-0.7,1.3-1,2
		C181.2,416.5,181.1,417.2,181,418z"/>
	<path class="st0" d="M205.1,414.5c-0.3,0-0.4-0.1-0.4-0.2c-0.1-0.1-0.1-0.3-0.2-0.4c-0.1-0.7-0.4-1.3-0.8-1.6s-1-0.5-1.7-0.5
		c-0.7,0-1.4,0.2-2,0.5s-0.8,0.9-0.8,1.5c0,0.5,0.2,1,0.6,1.4c0.4,0.5,0.9,1,1.4,1.4c0.5,0.4,0.9,0.8,1.4,1.2
		c0.4,0.4,0.9,0.8,1.3,1.3c0.4,0.5,0.7,0.8,0.9,1.3c0.2,0.4,0.4,0.9,0.4,1.3c0,0.7-0.2,1.4-0.4,1.9c-0.3,0.6-0.7,1.1-1.3,1.5
		c-0.5,0.4-1.2,0.8-1.9,1.1c-0.7,0.3-1.4,0.4-2.2,0.4c-0.8,0-1.6-0.1-2.4-0.2s-1.5-0.4-2.2-0.6c0.2-0.7,0.4-1.4,0.4-2
		c0.1-0.6,0.2-1.3,0.3-2.1h0.4c0.5,0,0.8,0.2,0.8,0.6c-0.1,1,0.2,1.8,0.7,2.3s1.2,0.8,2.1,0.8s1.7-0.3,2.2-0.7
		c0.6-0.4,0.9-1.1,0.9-1.9c0-0.4-0.1-0.7-0.3-1c-0.2-0.4-0.4-0.6-0.7-0.9s-0.6-0.6-1-0.9c-0.4-0.3-0.7-0.6-1.1-0.9
		c-0.7-0.6-1.4-1.2-1.9-1.9c-0.5-0.6-0.9-1.4-0.9-2.2c0-0.6,0.2-1.3,0.4-1.8s0.7-1,1.2-1.4c0.5-0.4,1.1-0.7,1.8-0.9
		c0.6-0.2,1.4-0.4,2.2-0.4c1.3,0,2.6,0.4,3.9,1c-0.1,0.4-0.2,0.8-0.3,1.4c-0.1,0.5-0.2,1.1-0.2,1.6L205.1,414.5z"/>
	<path class="st0" d="M215.9,423.3c0,0.1-0.1,0.2-0.1,0.4c0,0.2,0,0.3,0,0.4c0,0.3,0.2,0.4,0.4,0.4c0.2,0,0.4,0,0.5-0.1
		s0.4-0.2,0.5-0.3c0.2-0.1,0.4-0.2,0.4-0.3c0.2-0.1,0.3-0.1,0.4-0.1c0.3,0,0.4,0.3,0.4,0.7c-0.4,0.3-0.8,0.6-1.3,0.9
		s-0.9,0.5-1.4,0.7c-0.4,0.2-0.8,0.4-1.2,0.5c-0.4,0.1-0.7,0.2-0.9,0.2c-0.3,0-0.5-0.1-0.7-0.2c-0.3-0.1-0.4-0.4-0.4-0.7
		c0-0.1,0-0.2,0-0.4c0-0.2,0.1-0.3,0.1-0.4c0.5-2.5,0.9-4.5,1.3-6c0.3-1.5,0.5-2.6,0.7-3.4c0.2-0.8,0.3-1.4,0.3-1.5
		c0.1-0.3,0.1-0.5,0.1-0.5c0-0.3-0.1-0.5-0.4-0.5c-0.1,0-0.3,0-0.5,0.1c-0.2,0.1-0.4,0.2-0.6,0.3c-0.2,0.1-0.4,0.2-0.5,0.3
		c-0.2,0.1-0.3,0.1-0.4,0.1s-0.3-0.1-0.4-0.2c-0.1-0.2-0.1-0.3-0.2-0.4c0.4-0.3,0.9-0.5,1.4-0.8s1.1-0.5,1.6-0.8s1-0.5,1.4-0.6
		c0.4-0.2,0.7-0.3,0.8-0.3c0.4,0,0.6,0.2,0.6,0.6c0,0.2,0,0.4-0.1,0.5L215.9,423.3z M217.7,406.8c-0.5,0-0.8-0.2-1.1-0.4
		s-0.4-0.6-0.4-1.1c0-0.6,0.2-1.2,0.6-1.7s1-0.7,1.5-0.7c0.4,0,0.8,0.2,1,0.5c0.2,0.3,0.3,0.7,0.3,1.2c0,0.6-0.2,1.1-0.6,1.6
		C218.8,406.6,218.3,406.8,217.7,406.8z"/>
	<path class="st0" d="M225.1,431.2c0.4,0.7,0.8,1.3,1.5,1.8c0.7,0.5,1.4,0.7,2.2,0.7c1,0,1.9-0.5,2.6-1.3c0.7-0.8,1.3-2,1.6-3.5
		l1.7-8.5h-0.2c-1,2.1-2.1,3.6-3.2,4.6c-1.2,1-2.3,1.5-3.4,1.5c-0.4,0-0.7-0.1-1.1-0.2s-0.6-0.3-0.9-0.5c-0.3-0.3-0.5-0.6-0.6-1.1
		c-0.2-0.4-0.3-1.1-0.3-1.8c0-1.9,0.3-3.6,0.9-5.2c0.5-1.5,1.3-2.9,2.2-4c0.9-1.1,2-1.9,3.1-2.4c1.1-0.5,2.2-0.9,3.2-0.9
		c0.8,0,1.6,0,2.2,0.1c0.7,0.1,1.5,0.2,2.4,0.4l-3.2,16.6c-0.3,1.4-0.7,2.5-1.4,3.4c-0.6,0.9-1.3,1.7-2.1,2.3
		c-0.7,0.6-1.5,1.1-2.3,1.4s-1.6,0.4-2.3,0.4c-1.8,0-3.1-0.3-4.1-0.7c0.2-0.5,0.3-1,0.4-1.4c0.1-0.4,0.2-0.9,0.3-1.4L225.1,431.2z
		 M236.2,412.3c-0.3-0.1-0.6-0.2-1-0.3c-0.4-0.1-0.7-0.1-1.1-0.1c-1,0-1.9,0.3-2.6,0.8c-0.7,0.5-1.3,1.3-1.9,2.2s-0.9,2-1.2,3.1
		c-0.3,1.2-0.4,2.5-0.4,3.9c0,0.9,0.1,1.5,0.4,1.9c0.3,0.4,0.6,0.5,1.1,0.5s0.9-0.2,1.4-0.6c0.4-0.5,1-1,1.5-1.7
		c0.5-0.7,1-1.4,1.4-2.3s0.9-1.7,1.3-2.6c0.4-0.9,0.6-1.7,0.8-2.6C236.1,413.7,236.2,413,236.2,412.3z"/>
	<path class="st0" d="M257.4,415.6c0.2-0.6,0.2-1.2,0.2-1.6c0-0.7-0.4-1-1-1c-0.4,0-0.8,0.2-1.4,0.5c-0.5,0.4-1.1,0.9-1.6,1.5
		c-0.5,0.6-1.1,1.4-1.7,2.1c-0.5,0.8-1.1,1.5-1.4,2.3c-0.2,0.4-0.5,0.8-0.6,1.4c-0.2,0.5-0.4,1-0.5,1.4c-0.2,0.5-0.3,1-0.4,1.5
		c-0.1,0.5-0.1,1-0.1,1.4c0,0.4,0,0.6,0.1,1c-0.9,0.1-1.8,0.3-2.8,0.5c-0.2-0.1-0.3-0.3-0.3-0.5c0-0.1,0-0.2,0-0.3
		c0-0.2,0.1-0.3,0.1-0.4c0.5-2.7,1-4.9,1.3-6.5c0.3-1.6,0.5-2.8,0.7-3.6c0.2-0.8,0.3-1.4,0.3-1.6s0.1-0.4,0.1-0.4
		c0-0.3-0.1-0.5-0.3-0.5c-0.1,0-0.3,0-0.4,0.1c-0.2,0.1-0.4,0.2-0.5,0.3c-0.2,0.1-0.4,0.2-0.5,0.3c-0.2,0.1-0.4,0.1-0.5,0.1
		c-0.1,0-0.2-0.1-0.3-0.2c-0.1-0.2-0.2-0.3-0.2-0.5c0.4-0.3,0.9-0.5,1.5-0.8c0.5-0.3,1.2-0.5,1.7-0.8c0.5-0.3,1-0.5,1.4-0.6
		c0.4-0.2,0.6-0.3,0.8-0.3c0.2,0,0.3,0,0.4,0.1c0.1,0.1,0.2,0.2,0.2,0.4c0,0.1,0,0.2,0,0.3c0,0.1,0,0.2-0.1,0.4l-1.3,6.1h0.2
		c0.6-1.1,1.3-2,1.9-2.9c0.6-0.9,1.3-1.7,2-2.3c0.6-0.6,1.4-1.2,2.1-1.5c0.7-0.4,1.4-0.5,2.1-0.5c0.6,0,1.2,0.2,1.5,0.4
		c0.4,0.3,0.5,0.9,0.5,1.6c0,0.3,0,0.6-0.1,1c-0.1,0.4-0.1,0.7-0.2,1.2l-1.8,8.5c-0.1,0.4-0.1,0.5-0.1,0.6c0,0.3,0.2,0.5,0.5,0.5
		c0.2,0,0.3,0,0.5-0.1c0.2-0.1,0.4-0.2,0.5-0.3c0.2-0.1,0.4-0.2,0.5-0.3c0.2-0.1,0.3-0.1,0.4-0.1c0.3,0,0.4,0.3,0.5,0.7
		c-0.5,0.3-0.9,0.6-1.3,0.9c-0.5,0.3-0.9,0.5-1.4,0.7c-0.4,0.2-0.8,0.4-1.2,0.5c-0.4,0.1-0.7,0.2-0.9,0.2c-0.3,0-0.5-0.1-0.7-0.2
		c-0.2-0.1-0.4-0.4-0.4-0.7c0-0.1,0-0.2,0-0.4s0.1-0.3,0.1-0.4L257.4,415.6z"/>
	<path class="st0" d="M290.9,417.7c0.2-0.6,0.4-1.3,0.8-1.7c0.4-0.5,0.8-0.9,1.3-1.3c0.4-0.4,1-0.6,1.5-0.8c0.5-0.2,1-0.3,1.4-0.3
		c0.6,0,1.3,0.1,1.8,0.2s1,0.3,1.5,0.5c0.5,0.2,1,0.4,1.4,0.4c0.5,0.2,1.1,0.2,1.6,0.2c0.6,0,1-0.1,1.2-0.5c0.2-0.3,0.3-0.5,0.3-0.9
		c0-0.3,0-0.4-0.1-0.7c-0.1-0.2-0.1-0.4-0.1-0.5c0-0.3,0.1-0.5,0.3-0.5c0.2-0.1,0.4-0.2,0.6-0.2c0.6,0,1.2,0.4,1.7,1
		c-0.4,1.4-1,2.4-1.8,3.1c-0.8,0.6-1.8,1-2.9,1c-0.7,0-1.4-0.1-2-0.2c0.2,0.4,0.4,0.7,0.5,1.3c0.1,0.5,0.2,1,0.2,1.5
		c0,0.7-0.2,1.4-0.4,2.3c-0.4,0.8-0.9,1.6-1.6,2.3c-0.8,0.7-1.9,1.4-3.2,1.9c-1.4,0.5-3.2,0.8-5.2,0.8c-1,0-2-0.1-3.1-0.4
		c-1.1-0.2-2.1-0.6-2.9-1.2s-1.6-1.3-2.2-2.2c-0.5-0.9-0.9-2-0.9-3.3c0-1.6,0.5-3,1.6-4.1c1.1-1.2,2.6-1.9,4.7-2.2v-0.1
		c-1.2-0.5-2.1-1.1-2.7-1.8c-0.6-0.8-0.9-1.6-0.9-2.6c0-1,0.3-1.9,0.7-2.6c0.5-0.7,1.1-1.3,1.8-1.7c0.7-0.4,1.5-0.8,2.4-1
		s1.7-0.3,2.5-0.3c1.4,0,2.8,0.2,3.9,0.6c1.2,0.5,2.1,0.9,2.7,1.4c0.3,0.2,0.3,0.5,0.1,0.9c-0.2,0.4-0.5,0.7-1.1,1.1
		s-1.1,0.2-1.6-0.4c-0.6-0.7-1.3-1.3-2-1.6c-0.7-0.4-1.5-0.6-2.4-0.6c-0.4,0-0.8,0.1-1.3,0.2c-0.4,0.1-0.8,0.4-1.3,0.6
		c-0.4,0.4-0.7,0.7-1,1.4c-0.3,0.6-0.4,1.3-0.4,2.2c0,0.4,0.1,0.7,0.2,1.2c0.1,0.5,0.3,0.9,0.6,1.3c0.3,0.5,0.7,0.8,1.3,1.2
		c0.5,0.4,1.4,0.6,2.3,0.7l-0.3,1.2c-0.3-0.1-0.5-0.1-0.7-0.1s-0.4,0-0.4,0c-1,0-1.9,0.2-2.5,0.4c-0.6,0.3-1.3,0.6-1.7,1.1
		c-0.4,0.5-0.7,0.9-0.9,1.5c-0.2,0.5-0.3,1.2-0.3,1.7c0,1.1,0.2,2,0.5,2.7c0.4,0.8,0.8,1.4,1.4,2s1.4,0.9,2.2,1.2s1.8,0.4,2.8,0.4
		c1.2,0,2.2-0.2,3.1-0.5c1-0.3,1.8-0.7,2.5-1.3c0.7-0.5,1.3-1.2,1.6-1.9s0.5-1.5,0.5-2.4c0-0.4-0.1-0.9-0.2-1.4
		c-0.1-0.4-0.3-0.9-0.5-1.3c-0.3-0.4-0.7-0.6-1.2-0.9c-0.5-0.3-1.2-0.4-2-0.4c-0.5,0-0.9,0.1-1.2,0.4c-0.3,0.2-0.4,0.6-0.4,1.2
		c0,0.2,0,0.4,0.1,0.5c0.1,0.1,0.1,0.3,0.1,0.4c0,0.3-0.1,0.5-0.3,0.6c-0.2,0.1-0.4,0.2-0.7,0.2s-0.5-0.1-0.8-0.2
		C291.7,418.4,291.1,418,290.9,417.7z"/>
	<path class="st0" d="M341.2,405.9c0.4-0.5,0.4-1,0.1-1.3s-0.7-0.5-1.4-0.5c-0.4,0-0.4-0.2-0.4-0.5c0-0.2,0-0.4,0.1-0.6
		c1.4,0.2,2.5,0.2,3.4,0.2c0.5,0,0.9,0,1.4-0.1s1.1-0.1,1.6-0.2c0.1,0.2,0.1,0.5,0.1,0.6c0,0.3-0.2,0.4-0.4,0.5
		c-1.2,0.2-2.1,0.6-2.4,1.4l-12,21.1c-0.2,0.1-0.4,0.1-0.4,0.1c-0.3,0-0.5-0.2-0.5-0.5l-3.8-20.6c-0.1-0.7-0.7-1.2-1.8-1.4
		c-0.2,0-0.4-0.1-0.4-0.2c-0.1-0.1-0.1-0.3-0.1-0.4c0-0.2,0-0.4,0.1-0.6c0.7,0.1,1.4,0.1,2.2,0.2c0.7,0.1,1.4,0.1,2,0.1
		c0.5,0,1.2,0,1.9-0.1c0.7-0.1,1.5-0.1,2.1-0.2c0.1,0.2,0.1,0.5,0.1,0.6c0,0.1,0,0.3-0.1,0.4c-0.1,0.1-0.2,0.2-0.4,0.2
		c-0.7,0.1-1.3,0.2-1.6,0.5c-0.4,0.3-0.4,0.6-0.4,1.2l2.4,15.8L341.2,405.9z"/>
	<path class="st0" d="M374.2,403.2c1,0,2.1-0.1,3.3-0.2c0,0.1,0,0.2,0.1,0.4c0,0.1,0,0.2,0,0.3c0,0.4-0.2,0.5-0.4,0.6
		c-0.5,0.1-1,0.3-1.3,0.5c-0.4,0.2-0.5,0.5-0.5,0.9l-2.7,18.3c-0.1,0.5,0.1,0.8,0.4,1.1c0.4,0.2,0.8,0.4,1.4,0.5
		c0.4,0,0.5,0.2,0.5,0.6c0,0.1,0,0.3-0.1,0.5c-0.7-0.1-1.4-0.1-2.2-0.1c-0.7,0-1.4-0.1-2-0.1c-0.5,0-1.1,0-1.7,0.1
		c-0.6,0.1-1.3,0.1-1.9,0.2c-0.1-0.2-0.1-0.5-0.1-0.6c0-0.3,0.2-0.5,0.5-0.5c0.6-0.1,1.1-0.3,1.5-0.5c0.5-0.2,0.6-0.5,0.7-1
		l2.4-16.5l-10.4,18.7c-0.2,0.4-0.5,0.5-0.8,0.5c-0.2,0-0.4,0-0.5-0.1l-4.2-19.3l-4,16.6c-0.1,0.4,0,0.8,0.4,1.1
		c0.4,0.3,0.9,0.4,1.4,0.5c0.2,0,0.4,0.1,0.4,0.2c0.1,0.1,0.1,0.2,0.1,0.4c0,0.1,0,0.2,0,0.3s0,0.2-0.1,0.4
		c-0.7-0.1-1.4-0.1-1.8-0.2c-0.5,0-1-0.1-1.4-0.1c-0.9,0-1.9,0.1-3.1,0.2c-0.1-0.2-0.1-0.4-0.1-0.5c0-0.1,0-0.3,0.1-0.4
		c0.1-0.1,0.2-0.2,0.4-0.2c0.5-0.1,1.1-0.3,1.4-0.5c0.4-0.3,0.6-0.5,0.8-1l4.3-18.4c0.1-0.3,0-0.5-0.3-0.8c-0.2-0.3-0.6-0.4-1.2-0.5
		c-0.4-0.1-0.5-0.3-0.5-0.5c0-0.1,0-0.2,0-0.3c0-0.1,0-0.2,0.1-0.4c0.7,0.1,1.4,0.1,1.9,0.2c0.5,0,1.2,0.1,1.8,0.1s1.1,0.1,1.4,0.2
		c0.2,0.1,0.4,0.3,0.4,0.5l3.8,17.9l9.8-17.8c0.1-0.2,0.2-0.3,0.3-0.4c0.1-0.1,0.2-0.2,0.4-0.3c0.2-0.1,0.4-0.1,0.5-0.2
		C373.5,403.2,373.7,403.2,374.2,403.2z"/>
	<path class="st0" d="M405,414.5c-0.3,0-0.5-0.1-0.5-0.2c-0.1-0.1-0.1-0.3-0.2-0.4c-0.1-0.7-0.4-1.3-0.8-1.6c-0.5-0.4-1-0.5-1.7-0.5
		c-0.7,0-1.4,0.2-2,0.5c-0.5,0.4-0.8,0.9-0.8,1.5c0,0.5,0.2,1,0.6,1.4c0.4,0.5,0.9,1,1.4,1.4c0.5,0.4,0.9,0.8,1.4,1.2
		c0.4,0.4,0.9,0.8,1.3,1.3c0.4,0.5,0.7,0.8,0.9,1.3c0.2,0.4,0.4,0.9,0.4,1.3c0,0.7-0.2,1.4-0.5,1.9c-0.3,0.6-0.7,1.1-1.3,1.5
		c-0.5,0.4-1.2,0.8-1.9,1.1c-0.7,0.3-1.4,0.4-2.2,0.4s-1.6-0.1-2.4-0.2c-0.8-0.2-1.5-0.4-2.2-0.6c0.2-0.7,0.4-1.4,0.4-2
		c0.1-0.6,0.2-1.3,0.3-2.1h0.4c0.5,0,0.8,0.2,0.8,0.6c-0.1,1,0.2,1.8,0.7,2.3c0.5,0.5,1.2,0.8,2.1,0.8c0.9,0,1.7-0.3,2.2-0.7
		c0.5-0.4,0.9-1.1,0.9-1.9c0-0.4-0.1-0.7-0.3-1c-0.2-0.4-0.5-0.6-0.7-0.9s-0.6-0.6-1-0.9c-0.4-0.3-0.7-0.6-1.1-0.9
		c-0.7-0.6-1.4-1.2-1.9-1.9c-0.5-0.6-0.9-1.4-0.9-2.2c0-0.6,0.2-1.3,0.4-1.8s0.7-1,1.2-1.4c0.5-0.4,1.1-0.7,1.8-0.9
		c0.6-0.2,1.4-0.4,2.2-0.4c1.4,0,2.6,0.4,3.9,1c-0.1,0.4-0.2,0.8-0.3,1.4c-0.1,0.5-0.2,1.1-0.2,1.6L405,414.5z"/>
	<path class="st0" d="M415.1,413.4c0-0.3-0.1-0.4-0.3-0.4c-0.1,0-0.3,0-0.5,0.1c-0.2,0.1-0.4,0.2-0.6,0.3c-0.3,0.1-0.5,0.2-0.5,0.3
		c-0.2,0.1-0.3,0.1-0.5,0.1c-0.2,0-0.3-0.1-0.4-0.2c-0.1-0.2-0.1-0.3-0.2-0.4c0.5-0.3,0.9-0.5,1.4-0.8c0.5-0.3,1.1-0.5,1.6-0.8
		c0.5-0.3,1-0.5,1.4-0.6c0.5-0.2,0.7-0.3,0.8-0.3c0.2,0,0.3,0,0.5,0.1c0.1,0.1,0.2,0.3,0.2,0.5c0,0.2,0,0.4-0.1,0.5l-1.1,4.9h0.1
		c1.2-2.2,2.3-3.7,3.5-4.7c1.2-1,2.3-1.4,3.4-1.4c0.6,0,1.1,0.1,1.4,0.4c0.4,0.3,0.7,0.5,1,0.9c0.3,0.4,0.4,0.8,0.5,1.4
		c0.1,0.5,0.2,1,0.2,1.5c0,1.9-0.4,3.5-1,5c-0.6,1.4-1.4,2.7-2.4,3.7c-1,1-2.1,1.8-3.2,2.3s-2.2,0.8-3.2,0.8c-0.3,0-0.6,0-1.1-0.1
		c-0.4,0-0.7-0.1-1-0.2l-0.5,2.8c-0.3,1.4-0.4,2.3-0.4,3c0,0.4,0.1,0.5,0.4,0.5c0.2,0,0.4,0,0.9-0.1c0.5-0.1,0.7-0.1,1-0.1
		c0.2,0,0.3,0.1,0.3,0.2c0,0.1,0.1,0.3,0.1,0.4c-1.1,0.3-2.1,0.6-3,0.9s-1.8,0.6-2.6,1c-0.2-0.1-0.4-0.3-0.4-0.4
		c-0.1-0.1-0.1-0.3-0.1-0.4c0-0.1,0-0.3,0.1-0.5l4-19.9c0-0.1,0-0.2,0-0.4C414.8,413.1,415.1,413.5,415.1,413.4z M415.7,424.8
		c0.3,0.2,0.6,0.3,1,0.4c0.4,0.1,0.8,0.1,1.1,0.1c1,0,1.8-0.3,2.6-0.7c0.8-0.5,1.4-1.2,2-2c0.5-0.8,1-1.9,1.3-3.1s0.5-2.4,0.5-3.8
		c0-1.1-0.2-1.8-0.5-2.2c-0.3-0.5-0.7-0.6-1.2-0.6c-0.5,0-0.9,0.2-1.4,0.6c-0.5,0.4-1,1-1.5,1.6c-0.5,0.7-1,1.4-1.4,2.3
		c-0.4,0.9-0.9,1.7-1.3,2.6c-0.4,0.9-0.6,1.7-0.9,2.5C415.8,423.5,415.7,424.1,415.7,424.8z"/>
	<path class="st0" d="M436.4,419.1c0,0.3,0,0.4-0.1,0.7c0,0.3,0,0.5,0,0.7c0,0.5,0.1,1.1,0.2,1.6c0.1,0.5,0.3,1,0.4,1.4
		c0.3,0.4,0.5,0.7,1,1c0.4,0.3,0.9,0.4,1.5,0.4s1.3-0.1,1.9-0.4c0.6-0.2,1.4-0.5,2-1.1c0.3-0.2,0.4-0.3,0.5-0.3
		c0.2,0,0.3,0.1,0.4,0.3c0.1,0.2,0.1,0.4,0.1,0.5c-0.4,0.4-0.7,0.6-1.2,1c-0.5,0.4-0.9,0.6-1.4,0.9s-1.1,0.4-1.6,0.6
		c-0.6,0.2-1.2,0.3-1.8,0.3c-1,0-1.8-0.2-2.4-0.5s-1.1-0.8-1.4-1.4c-0.4-0.5-0.6-1.2-0.7-1.9c-0.1-0.7-0.2-1.4-0.2-2
		c0-1.3,0.2-2.5,0.5-3.7c0.4-1.3,0.9-2.3,1.6-3.3c0.7-1,1.5-1.7,2.6-2.3c1-0.6,2.2-0.9,3.4-0.9c0.5,0,1,0.1,1.4,0.2
		c0.5,0.1,0.9,0.4,1.3,0.5c0.4,0.3,0.6,0.6,0.9,1c0.2,0.4,0.4,0.9,0.4,1.5c0,0.9-0.3,1.6-0.7,2.2c-0.4,0.6-1.1,1.2-1.9,1.5
		c-0.8,0.4-1.8,0.7-2.9,0.9C438.9,418.9,437.7,419,436.4,419.1z M436.5,418c2.2-0.2,3.9-0.6,4.8-1.4c0.9-0.7,1.4-1.6,1.4-2.8
		c0-0.6-0.2-1.2-0.5-1.5c-0.4-0.4-0.7-0.5-1.3-0.5s-1.1,0.2-1.5,0.5c-0.4,0.4-0.9,0.8-1.3,1.4c-0.4,0.5-0.7,1.3-1,2
		C436.7,416.5,436.6,417.2,436.5,418z"/>
	<path class="st0" d="M459.3,412c-0.8,0-1.5,0.3-2.2,0.7c-0.6,0.5-1.2,1.1-1.5,1.9c-0.5,0.8-0.7,1.7-0.9,2.8
		c-0.2,1.1-0.4,2.2-0.4,3.3c0,0.5,0.1,1.1,0.2,1.6c0.1,0.5,0.3,1,0.5,1.4c0.3,0.4,0.6,0.7,1,0.9c0.5,0.2,1,0.4,1.6,0.4
		c0.7,0,1.4-0.2,2-0.5s1.3-0.6,1.9-1c0.1-0.1,0.1-0.1,0.2-0.1c0.1,0,0.1-0.1,0.2-0.1c0.2,0,0.3,0.1,0.4,0.3c0.1,0.2,0.1,0.4,0.1,0.5
		c-0.4,0.3-0.7,0.6-1.2,0.9c-0.5,0.4-0.9,0.6-1.4,0.9c-0.5,0.3-1.1,0.5-1.7,0.6c-0.6,0.2-1.2,0.3-1.8,0.3c-0.9,0-1.6-0.2-2.2-0.4
		s-1.1-0.7-1.4-1.3s-0.6-1.2-0.8-1.8s-0.3-1.4-0.3-2.1c0-1.3,0.2-2.6,0.5-3.8c0.4-1.3,0.9-2.3,1.6-3.3c0.7-1,1.5-1.8,2.5-2.3
		c1-0.5,2.1-0.9,3.3-0.9c1.4,0,2.9,0.4,4.2,1c-0.1,0.4-0.2,0.8-0.4,1.4c-0.1,0.6-0.2,1.2-0.2,1.7h-0.5c-0.4,0-0.5-0.2-0.6-0.5
		c-0.3-0.8-0.6-1.4-1.1-1.8C460.5,412.2,460,412,459.3,412z"/>
	<path class="st0" d="M473.5,423.3c0,0.1-0.1,0.2-0.1,0.4c0,0.2,0,0.3,0,0.4c0,0.3,0.2,0.4,0.5,0.4c0.2,0,0.4,0,0.5-0.1
		c0.2-0.1,0.4-0.2,0.5-0.3c0.2-0.1,0.4-0.2,0.5-0.3c0.2-0.1,0.3-0.1,0.4-0.1c0.3,0,0.4,0.3,0.5,0.7c-0.4,0.3-0.8,0.6-1.3,0.9
		c-0.4,0.3-0.9,0.5-1.3,0.7c-0.5,0.2-0.8,0.4-1.2,0.5c-0.4,0.1-0.7,0.2-0.9,0.2c-0.3,0-0.5-0.1-0.7-0.2c-0.3-0.1-0.4-0.4-0.4-0.7
		c0-0.1,0-0.2,0-0.4s0.1-0.3,0.1-0.4c0.5-2.5,0.9-4.5,1.3-6c0.3-1.5,0.5-2.6,0.7-3.4s0.3-1.4,0.3-1.5c0-0.2,0.1-0.5,0.1-0.5
		c0-0.3-0.1-0.5-0.4-0.5c-0.1,0-0.3,0-0.5,0.1c-0.2,0.1-0.4,0.2-0.6,0.3c-0.3,0.1-0.5,0.2-0.5,0.3c-0.2,0.1-0.3,0.1-0.5,0.1
		c-0.2,0-0.3-0.1-0.4-0.2c-0.1-0.2-0.1-0.3-0.2-0.4c0.5-0.3,0.9-0.5,1.4-0.8c0.5-0.3,1.1-0.5,1.6-0.8s1-0.5,1.4-0.6
		c0.5-0.2,0.7-0.3,0.8-0.3c0.4,0,0.6,0.2,0.6,0.6c0,0.2,0,0.4-0.1,0.5L473.5,423.3z M475.3,406.8c-0.5,0-0.8-0.2-1.1-0.4
		s-0.4-0.6-0.4-1.1c0-0.6,0.2-1.2,0.6-1.7c0.4-0.5,1-0.7,1.5-0.7c0.5,0,0.8,0.2,1,0.5c0.2,0.3,0.3,0.7,0.3,1.2
		c0,0.6-0.2,1.1-0.6,1.6C476.3,406.6,475.9,406.8,475.3,406.8z"/>
	<path class="st0" d="M492.5,420.3h-0.2c-0.6,1.2-1.2,2.2-1.8,3s-1.3,1.4-1.8,2c-0.6,0.5-1.2,0.8-1.8,1.1c-0.5,0.2-1.1,0.4-1.6,0.4
		c-0.4,0-0.7-0.1-1-0.2c-0.4-0.1-0.6-0.3-0.8-0.5c-0.3-0.3-0.4-0.6-0.5-1.1c-0.2-0.5-0.2-1-0.2-1.7c0-2,0.4-3.8,1-5.3
		c0.6-1.5,1.4-2.9,2.4-4c1-1.1,2-1.9,3.1-2.4c1.1-0.5,2.2-0.8,3.1-0.8c0.7,0,1.4,0,2.2,0.1c0.7,0.1,1.4,0.2,2.3,0.4l-2.4,12.2
		c-0.1,0.3-0.1,0.5-0.1,0.6c0,0.3,0.1,0.5,0.4,0.5c0.2,0,0.4,0,0.5-0.1c0.2-0.1,0.4-0.2,0.5-0.3c0.2-0.1,0.4-0.2,0.5-0.3
		c0.2-0.1,0.3-0.1,0.4-0.1c0.3,0,0.4,0.3,0.5,0.7c-0.5,0.3-0.9,0.6-1.4,0.9s-0.9,0.5-1.4,0.7c-0.4,0.2-0.8,0.4-1.2,0.5
		c-0.4,0.1-0.7,0.2-0.9,0.2c-0.3,0-0.5-0.1-0.7-0.2c-0.2-0.1-0.4-0.4-0.4-0.7c0-0.1,0-0.3,0-0.4c0-0.2,0.1-0.3,0.1-0.5L492.5,420.3z
		 M493.9,412.3c-0.3-0.1-0.6-0.2-0.9-0.3c-0.4-0.1-0.6-0.1-1-0.1c-0.9,0-1.8,0.3-2.5,0.7c-0.7,0.5-1.4,1.2-2,2.1
		c-0.5,0.9-1,2-1.3,3.1c-0.3,1.3-0.5,2.5-0.5,4c0,0.8,0.1,1.4,0.4,1.8c0.2,0.4,0.5,0.5,0.9,0.5c0.4,0,1-0.2,1.5-0.6s1.1-1,1.5-1.6
		c0.5-0.6,1-1.4,1.4-2.3s0.9-1.7,1.3-2.6c0.4-0.9,0.6-1.8,0.8-2.6C493.7,413.7,493.9,413,493.9,412.3z"/>
	<path class="st0" d="M508.4,404.3c0-0.1,0-0.3-0.1-0.4c0-0.1-0.2-0.2-0.3-0.2s-0.2,0-0.4,0.1c-0.2,0-0.4,0.1-0.5,0.1
		c-0.2,0-0.4,0.1-0.5,0.1c-0.2,0-0.3,0-0.4,0c-0.3,0-0.5-0.3-0.5-0.7c1.1-0.3,2.1-0.5,3-0.9c0.9-0.3,1.8-0.6,2.7-1
		c0.2,0.1,0.3,0.3,0.4,0.4c0.1,0.1,0.1,0.2,0.1,0.4s0,0.4-0.1,0.5l-4,20.6c0,0.1-0.1,0.3-0.1,0.5c0,0.2,0,0.3,0,0.3
		c0,0.3,0.2,0.4,0.4,0.4c0.2,0,0.4,0,0.5-0.1c0.2-0.1,0.4-0.2,0.5-0.3c0.2-0.1,0.4-0.2,0.5-0.3c0.2-0.1,0.3-0.1,0.4-0.1
		c0.3,0,0.4,0.3,0.5,0.7c-0.4,0.3-0.8,0.6-1.3,0.9c-0.4,0.3-0.9,0.5-1.4,0.7c-0.4,0.2-0.8,0.4-1.2,0.5c-0.4,0.1-0.7,0.2-0.9,0.2
		c-0.3,0-0.5-0.1-0.7-0.2c-0.3-0.1-0.4-0.4-0.4-0.7c0-0.1,0-0.2,0-0.4c0-0.2,0.1-0.3,0.1-0.4l3.3-17.1c0.2-0.7,0.3-1.4,0.4-2.1
		C508.4,405.2,508.4,404.7,508.4,404.3z"/>
	<path class="st0" d="M520.8,423.3c0,0.1-0.1,0.2-0.1,0.4c0,0.2,0,0.3,0,0.4c0,0.3,0.2,0.4,0.5,0.4c0.2,0,0.4,0,0.5-0.1
		s0.4-0.2,0.5-0.3c0.2-0.1,0.4-0.2,0.5-0.3c0.2-0.1,0.3-0.1,0.4-0.1c0.3,0,0.4,0.3,0.5,0.7c-0.4,0.3-0.8,0.6-1.3,0.9
		s-0.9,0.5-1.4,0.7c-0.4,0.2-0.8,0.4-1.2,0.5c-0.4,0.1-0.7,0.2-0.9,0.2c-0.3,0-0.5-0.1-0.7-0.2c-0.3-0.1-0.4-0.4-0.4-0.7
		c0-0.1,0-0.2,0-0.4s0.1-0.3,0.1-0.4c0.5-2.5,0.9-4.5,1.3-6c0.3-1.5,0.5-2.6,0.7-3.4c0.2-0.8,0.3-1.4,0.3-1.5c0-0.2,0.1-0.5,0.1-0.5
		c0-0.3-0.1-0.5-0.4-0.5c-0.1,0-0.3,0-0.5,0.1c-0.2,0.1-0.4,0.2-0.6,0.3c-0.3,0.1-0.5,0.2-0.5,0.3c-0.2,0.1-0.3,0.1-0.5,0.1
		s-0.3-0.1-0.4-0.2c-0.1-0.2-0.1-0.3-0.2-0.4c0.5-0.3,0.9-0.5,1.4-0.8s1.1-0.5,1.6-0.8s1-0.5,1.4-0.6c0.5-0.2,0.7-0.3,0.8-0.3
		c0.4,0,0.6,0.2,0.6,0.6c0,0.2,0,0.4-0.1,0.5L520.8,423.3z M522.6,406.8c-0.4,0-0.8-0.2-1.1-0.4c-0.3-0.3-0.4-0.6-0.4-1.1
		c0-0.6,0.2-1.2,0.6-1.7s1-0.7,1.5-0.7c0.5,0,0.8,0.2,1,0.5c0.2,0.3,0.3,0.7,0.3,1.2c0,0.6-0.2,1.1-0.6,1.6
		C523.7,406.6,523.1,406.8,522.6,406.8z"/>
	<path class="st0" d="M539.9,414.5c-0.3,0-0.5-0.1-0.5-0.2c-0.1-0.1-0.1-0.3-0.2-0.4c-0.1-0.7-0.4-1.3-0.8-1.6
		c-0.5-0.4-1-0.5-1.7-0.5s-1.4,0.2-2,0.5c-0.5,0.4-0.8,0.9-0.8,1.5c0,0.5,0.2,1,0.6,1.4c0.5,0.5,0.9,1,1.4,1.4
		c0.5,0.4,0.9,0.8,1.4,1.2c0.5,0.4,0.9,0.8,1.3,1.3c0.4,0.5,0.7,0.8,0.9,1.3c0.2,0.4,0.4,0.9,0.4,1.3c0,0.7-0.2,1.4-0.5,1.9
		c-0.3,0.6-0.7,1.1-1.3,1.5c-0.5,0.4-1.2,0.8-1.9,1.1c-0.7,0.3-1.4,0.4-2.2,0.4c-0.8,0-1.6-0.1-2.4-0.2c-0.8-0.2-1.5-0.4-2.2-0.6
		c0.2-0.7,0.4-1.4,0.5-2c0.1-0.6,0.2-1.3,0.3-2.1h0.4c0.5,0,0.8,0.2,0.8,0.6c-0.1,1,0.2,1.8,0.7,2.3s1.2,0.8,2.1,0.8
		s1.7-0.3,2.2-0.7c0.5-0.4,0.9-1.1,0.9-1.9c0-0.4-0.1-0.7-0.3-1c-0.2-0.4-0.5-0.6-0.7-0.9c-0.3-0.3-0.6-0.6-1-0.9s-0.7-0.6-1.1-0.9
		c-0.7-0.6-1.3-1.2-1.9-1.9c-0.5-0.6-0.9-1.4-0.9-2.2c0-0.6,0.2-1.3,0.5-1.8c0.3-0.5,0.7-1,1.2-1.4c0.5-0.4,1.1-0.7,1.8-0.9
		c0.6-0.2,1.4-0.4,2.2-0.4c1.3,0,2.6,0.4,3.9,1c-0.1,0.4-0.2,0.8-0.3,1.4c-0.1,0.5-0.2,1.1-0.2,1.6L539.9,414.5z"/>
	<path class="st0" d="M550.3,410.4c0.2-0.9,0.3-1.6,0.3-2.2c0-0.3,0-0.6-0.1-1c0.5-0.1,0.9-0.2,1.4-0.2c0.4-0.1,1-0.2,1.4-0.4
		c0.2,0.2,0.3,0.3,0.3,0.5c0,0.1,0,0.2,0,0.3c0,0.2,0,0.3-0.1,0.4l-0.6,3.1h3.6c-0.1,0.2-0.2,0.5-0.2,0.8c-0.1,0.3-0.1,0.6-0.2,0.8
		c-0.6-0.1-1.2-0.2-1.8-0.3c-0.6-0.1-1.2-0.1-1.7-0.1l-2,11.1c-0.1,0.4-0.1,0.6-0.1,0.7c0,0.5,0.4,0.8,1,0.8c0.4,0,0.7,0,1-0.1
		c0.3-0.1,0.5-0.2,0.8-0.3c0.2-0.1,0.4-0.2,0.5-0.3c0.2-0.1,0.3-0.1,0.4-0.1c0.3,0,0.5,0.2,0.5,0.6c-0.7,0.5-1.5,1-2.3,1.4
		c-0.9,0.4-1.7,0.5-2.4,0.5c-0.8,0-1.4-0.2-1.8-0.5s-0.5-0.7-0.5-1.3c0-0.3,0-0.5,0.1-0.7l2.2-12.1h-2.6c0.1-0.4,0.1-0.7,0.3-0.9
		c0.1-0.2,0.3-0.3,0.5-0.3h2L550.3,410.4z"/>
	<path class="st0" d="M571.3,414.5c-0.3,0-0.5-0.1-0.5-0.2c-0.1-0.1-0.1-0.3-0.2-0.4c-0.1-0.7-0.4-1.3-0.8-1.6
		c-0.5-0.4-1-0.5-1.7-0.5s-1.4,0.2-2,0.5c-0.5,0.4-0.8,0.9-0.8,1.5c0,0.5,0.2,1,0.6,1.4c0.5,0.5,0.9,1,1.4,1.4
		c0.5,0.4,0.9,0.8,1.4,1.2c0.5,0.4,0.9,0.8,1.3,1.3c0.4,0.5,0.7,0.8,0.9,1.3c0.2,0.4,0.4,0.9,0.4,1.3c0,0.7-0.2,1.4-0.5,1.9
		c-0.3,0.6-0.7,1.1-1.3,1.5c-0.5,0.4-1.2,0.8-1.9,1.1c-0.7,0.3-1.4,0.4-2.2,0.4c-0.8,0-1.6-0.1-2.4-0.2c-0.8-0.2-1.5-0.4-2.2-0.6
		c0.2-0.7,0.4-1.4,0.4-2c0.1-0.6,0.2-1.3,0.3-2.1h0.4c0.5,0,0.8,0.2,0.8,0.6c-0.1,1,0.2,1.8,0.7,2.3s1.2,0.8,2.1,0.8
		s1.7-0.3,2.2-0.7c0.5-0.4,0.9-1.1,0.9-1.9c0-0.4-0.1-0.7-0.3-1c-0.2-0.4-0.5-0.6-0.7-0.9c-0.3-0.3-0.6-0.6-1-0.9s-0.7-0.6-1.1-0.9
		c-0.7-0.6-1.3-1.2-1.9-1.9c-0.5-0.6-0.9-1.4-0.9-2.2c0-0.6,0.2-1.3,0.5-1.8c0.3-0.5,0.7-1,1.2-1.4c0.5-0.4,1.1-0.7,1.8-0.9
		c0.6-0.2,1.4-0.4,2.2-0.4c1.3,0,2.6,0.4,3.9,1c-0.1,0.4-0.2,0.8-0.3,1.4c-0.1,0.5-0.2,1.1-0.2,1.6L571.3,414.5z"/>
</g>
<g>
	<path class="st0" d="M252,8.6c-0.1-0.4-0.3-0.6-0.6-0.8s-0.7-0.3-1.3-0.4c-0.3-0.1-0.4-0.3-0.4-0.6c0-0.2,0-0.4,0.1-0.6
		c0.7,0.1,1.4,0.1,2.1,0.2s1.4,0.1,2,0.1c0.4,0,1.2,0,2-0.1c0.8-0.1,1.5-0.1,2.2-0.2c0,0.1,0,0.2,0.1,0.4c0.1,0.2,0,0.2,0,0.3
		c0,0.1,0,0.3-0.1,0.4s-0.2,0.2-0.4,0.2c-0.7,0.1-1.3,0.2-1.6,0.5c-0.4,0.3-0.5,0.6-0.4,1.2l2.5,14.9l9.4-17.7
		c0.2-0.1,0.3-0.1,0.4-0.1c0.3,0,0.5,0.2,0.5,0.5L271,24l7.9-14.9c0.3-0.5,0.4-1,0.1-1.3s-0.7-0.4-1.4-0.4c-0.3,0-0.5-0.2-0.5-0.5
		c0-0.1,0-0.2,0-0.3c0-0.1,0-0.2,0.1-0.4c0.7,0.1,1.4,0.1,2,0.2c0.6,0,1.2,0.1,1.6,0.1c0.5,0,0.8,0,1.3-0.1c0.4,0,1-0.1,1.6-0.1
		c0,0.1,0,0.2,0.1,0.4c0,0.1,0,0.2,0,0.3c0,0.3-0.2,0.5-0.5,0.5c-1.2,0.2-2,0.6-2.3,1.3l-11.4,21.1c-0.2,0.1-0.3,0.1-0.5,0.1
		c-0.4,0-0.5-0.2-0.6-0.5l-2.7-17l-9.3,17.5c-0.2,0.1-0.3,0.1-0.4,0.1c-0.4,0-0.5-0.2-0.6-0.5L252,8.6z"/>
	<path class="st0" d="M287.1,22.1c0,0.3,0,0.5-0.1,0.7c0,0.3,0,0.5,0,0.7c0,0.5,0.1,1.1,0.2,1.6c0.1,0.5,0.3,1,0.4,1.4
		c0.3,0.4,0.5,0.7,1,1s0.9,0.4,1.5,0.4c0.6,0,1.3-0.1,1.9-0.4c0.6-0.2,1.4-0.5,2-1.1c0.3-0.2,0.4-0.3,0.5-0.3c0.2,0,0.3,0.1,0.4,0.3
		c0.1,0.2,0.1,0.4,0.1,0.5c-0.4,0.4-0.7,0.6-1.2,1c-0.5,0.4-0.9,0.6-1.4,0.9s-1.1,0.5-1.6,0.6c-0.6,0.2-1.2,0.3-1.8,0.3
		c-1,0-1.8-0.2-2.4-0.5c-0.6-0.4-1.1-0.8-1.4-1.4c-0.4-0.5-0.6-1.2-0.7-1.9c-0.1-0.7-0.2-1.4-0.2-2c0-1.3,0.2-2.5,0.5-3.7
		c0.4-1.3,0.9-2.3,1.6-3.3c0.7-1,1.5-1.7,2.6-2.3c1-0.6,2.2-0.9,3.4-0.9c0.5,0,1,0.1,1.4,0.2c0.5,0.1,0.9,0.4,1.3,0.5
		c0.4,0.3,0.6,0.6,0.9,1c0.2,0.4,0.4,0.9,0.4,1.5c0,0.9-0.3,1.6-0.7,2.2c-0.5,0.6-1.1,1.2-1.9,1.5c-0.8,0.5-1.8,0.7-2.9,0.9
		C289.7,22,288.4,22.1,287.1,22.1z M287.3,21.1c2.2-0.2,3.9-0.6,4.8-1.4s1.4-1.6,1.4-2.8c0-0.6-0.2-1.2-0.4-1.5
		c-0.4-0.4-0.7-0.5-1.3-0.5s-1.1,0.2-1.5,0.5c-0.5,0.4-0.9,0.8-1.4,1.3c-0.4,0.5-0.7,1.3-1,2C287.5,19.5,287.3,20.3,287.3,21.1z"/>
	<path class="st0" d="M323.5,23.4h-0.2c-0.6,1.2-1.2,2.2-1.8,3s-1.3,1.4-1.8,2c-0.6,0.5-1.2,0.8-1.8,1.1c-0.5,0.2-1.1,0.4-1.6,0.4
		c-0.4,0-0.7-0.1-1-0.2c-0.4-0.1-0.6-0.3-0.8-0.5c-0.3-0.3-0.4-0.6-0.5-1.1c-0.2-0.5-0.2-1-0.2-1.7c0-2,0.4-3.8,1-5.3
		c0.6-1.5,1.4-2.9,2.4-4c1-1.1,2-1.9,3.1-2.4c1.1-0.5,2.2-0.8,3.1-0.8c0.7,0,1.4,0,2.2,0.1c0.7,0.1,1.4,0.2,2.3,0.4l-2.4,12.2
		c-0.1,0.3-0.1,0.4-0.1,0.6c0,0.3,0.1,0.4,0.4,0.4c0.2,0,0.4,0,0.5-0.1c0.2-0.1,0.4-0.2,0.5-0.3c0.2-0.1,0.4-0.2,0.5-0.3
		c0.2-0.1,0.3-0.1,0.4-0.1c0.3,0,0.4,0.3,0.5,0.7c-0.5,0.3-0.9,0.6-1.4,0.9c-0.5,0.3-0.9,0.5-1.4,0.7c-0.4,0.2-0.8,0.4-1.2,0.5
		c-0.4,0.1-0.7,0.2-0.9,0.2c-0.3,0-0.5-0.1-0.7-0.2c-0.2-0.1-0.4-0.4-0.4-0.7c0-0.1,0-0.3,0-0.4c0-0.2,0.1-0.3,0.1-0.5L323.5,23.4z
		 M324.8,15.4c-0.3-0.1-0.6-0.2-0.9-0.3c-0.4-0.1-0.6-0.1-1-0.1c-0.9,0-1.8,0.3-2.5,0.7c-0.7,0.5-1.4,1.2-2,2.1
		c-0.5,0.9-1,2-1.3,3.2c-0.3,1.3-0.4,2.5-0.4,4c0,0.8,0.1,1.4,0.4,1.8c0.2,0.4,0.5,0.5,0.9,0.5c0.5,0,1-0.2,1.5-0.6
		c0.5-0.4,1.1-1,1.5-1.6c0.5-0.6,1-1.4,1.4-2.3c0.5-0.9,0.9-1.7,1.3-2.6c0.4-0.9,0.6-1.8,0.8-2.6C324.7,16.8,324.8,16,324.8,15.4z"
		/>
	<path class="st0" d="M344.9,17c-0.4,0-0.8,0.2-1.3,0.5c-0.4,0.4-1,0.8-1.4,1.4c-0.4,0.5-1,1.3-1.4,2c-0.4,0.7-0.9,1.5-1.3,2.3
		c-0.4,0.8-0.6,1.7-0.8,2.5c-0.2,0.9-0.4,1.7-0.4,2.5c0,0.4,0,0.6,0.1,1c-0.5,0.1-1,0.1-1.4,0.2c-0.5,0.1-1,0.2-1.4,0.4
		c-0.2-0.1-0.4-0.3-0.4-0.4c0-0.2,0-0.3,0.1-0.5c0.1-0.2,0.1-0.4,0.2-0.5c0.1-0.1,0.1-0.3,0.2-0.4s0.1-0.4,0.2-0.7l1.5-8
		c0.2-0.9,0.3-1.5,0.4-1.9c0.1-0.4,0.1-0.5,0.1-0.7c0-0.3-0.1-0.5-0.4-0.5c-0.1,0-0.3,0-0.4,0.1c-0.2,0.1-0.4,0.2-0.5,0.3
		c-0.2,0.1-0.4,0.2-0.5,0.3c-0.2,0.1-0.3,0.1-0.5,0.1c-0.1,0-0.2-0.1-0.3-0.2c-0.1-0.2-0.2-0.3-0.2-0.5c0.4-0.3,0.9-0.5,1.5-0.8
		c0.5-0.3,1.2-0.5,1.6-0.8c0.5-0.3,1-0.5,1.4-0.6c0.4-0.2,0.7-0.3,0.8-0.3c0.2,0,0.3,0,0.4,0.1c0.1,0.1,0.2,0.2,0.2,0.5
		c0,0.1,0,0.1,0,0.3c0,0.1,0,0.3-0.1,0.4l-1.2,5.3h0.2c1.3-2.2,2.4-3.9,3.5-4.9c1.1-1,2.1-1.5,3.1-1.5c0.2,0,0.5,0,0.5,0.1
		c0.2,0.1,0.3,0.2,0.4,0.2c-0.2,0.5-0.4,1.1-0.5,1.7c-0.2,0.6-0.3,1.3-0.4,2h-0.5C345.7,17.3,345.3,17,344.9,17z"/>
	<path class="st0" d="M354.8,22.1c0,0.3,0,0.5-0.1,0.7c0,0.3,0,0.5,0,0.7c0,0.5,0.1,1.1,0.2,1.6c0.1,0.5,0.3,1,0.4,1.4
		c0.3,0.4,0.5,0.7,1,1c0.5,0.3,0.9,0.4,1.5,0.4c0.6,0,1.3-0.1,1.9-0.4c0.6-0.2,1.4-0.5,2-1.1c0.3-0.2,0.4-0.3,0.5-0.3
		c0.2,0,0.3,0.1,0.4,0.3c0.1,0.2,0.1,0.4,0.1,0.5c-0.4,0.4-0.7,0.6-1.2,1c-0.5,0.4-0.9,0.6-1.4,0.9s-1.1,0.5-1.6,0.6
		c-0.6,0.2-1.2,0.3-1.8,0.3c-1,0-1.8-0.2-2.4-0.5c-0.6-0.4-1.1-0.8-1.4-1.4c-0.4-0.5-0.6-1.2-0.7-1.9c-0.1-0.7-0.2-1.3-0.2-2
		c0-1.3,0.2-2.5,0.5-3.7c0.4-1.3,0.9-2.3,1.6-3.3c0.7-1,1.5-1.7,2.6-2.3c1-0.6,2.2-0.9,3.4-0.9c0.5,0,1,0.1,1.4,0.2
		c0.5,0.1,0.9,0.4,1.3,0.5c0.4,0.3,0.6,0.6,0.9,1c0.2,0.4,0.4,0.9,0.4,1.5c0,0.9-0.3,1.6-0.7,2.2c-0.5,0.6-1.1,1.2-1.9,1.5
		c-0.8,0.5-1.8,0.7-2.9,0.9C357.5,22,356.2,22.1,354.8,22.1z M355,21.1c2.2-0.2,3.9-0.6,4.8-1.4s1.4-1.6,1.4-2.8
		c0-0.6-0.2-1.2-0.4-1.5c-0.4-0.4-0.7-0.5-1.3-0.5s-1.1,0.2-1.5,0.5c-0.5,0.4-0.9,0.8-1.4,1.3c-0.4,0.5-0.7,1.3-1,2
		C355.3,19.5,355.1,20.3,355,21.1z"/>
</g>
</svg>
